<?xml version="1.0" encoding="UTF-8" standalone="no"?>
<!-- Created with Inkscape (http://www.inkscape.org/) -->

<svg
   width="210mm"
   height="297mm"
   viewBox="0 0 210 297"
   version="1.1"
   id="svg28573"
   inkscape:version="1.1.1 (3bf5ae0d25, 2021-09-20)"
   sodipodi:docname="shortcut.svg"
   xmlns:inkscape="http://www.inkscape.org/namespaces/inkscape"
   xmlns:sodipodi="http://sodipodi.sourceforge.net/DTD/sodipodi-0.dtd"
   xmlns="http://www.w3.org/2000/svg"
   xmlns:svg="http://www.w3.org/2000/svg">
  <sodipodi:namedview
     id="namedview28575"
     pagecolor="#ffffff"
     bordercolor="#666666"
     borderopacity="1.0"
     inkscape:pageshadow="2"
     inkscape:pageopacity="0.0"
     inkscape:pagecheckerboard="0"
     inkscape:document-units="mm"
     showgrid="false"
     inkscape:zoom="0.90494912"
     inkscape:cx="323.22259"
     inkscape:cy="329.8528"
     inkscape:window-width="1920"
     inkscape:window-height="1051"
     inkscape:window-x="-9"
     inkscape:window-y="-9"
     inkscape:window-maximized="1"
     inkscape:current-layer="layer1" />
  <defs
     id="defs28570" />
  <g
     inkscape:label="Ebene 1"
     inkscape:groupmode="layer"
     id="layer1">
    <rect
       style="fill:#ffffff;stroke:none;stroke-width:0.609314"
       id="rect1034-6"
       width="125.57451"
       height="125.57451"
       x="30.526936"
       y="16.479633"
       inkscape:export-filename="C:\Users\tobiw\Documents\Arduino\TrashReminder_V3\shortcut.png"
       inkscape:export-xdpi="30.75"
       inkscape:export-ydpi="30.75" />
    <g
       id="g71591"
       transform="matrix(0.26458333,0,0,0.26458333,7.8172631,-135.51389)"
       inkscape:export-filename="C:\Users\tobiw\Documents\Arduino\TrashReminder_V3\shortcut.png"
       inkscape:export-xdpi="30.75"
       inkscape:export-ydpi="30.75">
      <path
         style="fill:#014500;fill-opacity:1"
         d="m 448.98564,636.42569 -0.4004,-9.94922 c -0.2198,-5.47251 -0.7592,-10.31001 -1.1992,-10.75 -0.44,-0.44 -4.3136,-0.80078 -8.6074,-0.80078 h -7.8067 l -0.5781,-4.88476 c -0.3182,-2.68709 -0.8186,-5.12525 -1.1113,-5.41797 -0.9288,-0.9288 -11.2964,-1.46263 -14.9805,-0.77149 -3.1671,0.59415 -3.6582,1.1234 -4.6309,4.98633 l -1.0898,4.32226 -5.6875,0.59375 c -3.1281,0.32714 -0.8415,0.3308 -4.6973,0.008 l -3.0097,-0.58789 c -3.5774,-2.62001 -7.9089,-5.90684 -10.3047,-9.52733 l -24.8145,-0.74805 c -4.6264,-0.13912 -12.9193,-0.26804 -22.5527,-0.32813 -4.5259,-0.0282 -9.4998,0.0323 -14.3769,0.041 -4.8772,-0.009 -9.8511,-0.0693 -14.377,-0.041 -9.6334,0.0601 -17.9263,0.18901 -22.5527,0.32813 l -24.81449,0.74805 c -2.39577,3.62049 -6.72735,6.90732 -10.30469,9.52733 l -3.00976,0.58789 c -3.85577,0.32299 -1.56919,0.31914 -4.69727,-0.008 l -5.6875,-0.59375 -1.08984,-4.32226 c -0.9727,-3.86293 -1.46378,-4.39218 -4.63086,-4.98633 -3.68406,-0.69114 -14.05167,-0.15731 -14.98047,0.77149 -0.29271,0.29272 -0.79308,2.73088 -1.11133,5.41797 l -0.57812,4.88476 h -7.80664 c -4.29385,0 -8.16743,0.36078 -8.60743,0.80078 -0.44,0.43999 -0.97942,5.27749 -1.19922,10.75 l -0.40039,9.94922"
         id="path53166" />
      <path
         style="fill:#038c01;fill-opacity:1"
         d="m 199.5208,667.50381 c 0.001,0.31718 3.10037,4.71191 6.88672,9.76758 6.67234,8.90913 6.90436,9.41524 7.5293,16.42383 0.91626,10.2756 14.30351,240.16906 16.09765,276.4414 0.82187,16.61598 1.96024,32.39018 2.53125,35.05278 2.02339,9.4347 6.26921,13.5279 15.86133,15.2929 2.52837,0.4653 9.99571,0.6322 16.59571,0.3711 18.63608,-0.7371 40.08388,-1.2693 58.11528,-1.5195 18.0313,0.2502 39.4791,0.7824 58.1152,1.5195 6.6,0.2611 14.0673,0.094 16.5957,-0.3711 9.5921,-1.765 13.8379,-5.8582 15.8613,-15.2929 0.571,-2.6626 1.7094,-18.4368 2.5313,-35.05278 1.7941,-36.27235 15.1814,-266.1658 16.0976,-276.4414 0.625,-7.00859 0.857,-7.5147 7.5293,-16.42383 3.7864,-5.05567 6.8857,-9.4504 6.8867,-9.76758"
         id="path53168" />
      <path
         id="path53170"
         style="fill:#027201;fill-opacity:1;stroke:none;stroke-width:11.7;stroke-miterlimit:4;stroke-dasharray:none;stroke-opacity:1"
         d="m 453.00514,666.89834 c 10.4944,-0.0477 15.6536,-1.25338 16.295,-3.80859 0.5366,-2.13836 -2.9062,-23.81768 -4.086,-25.72656 -0.3185,-0.51543 -4.1007,-0.9375 -8.4043,-0.9375 h -7.8242 -251.69531 -7.82422 c -4.30357,0 -8.08573,0.42207 -8.40429,0.9375 -1.17975,1.90888 -4.62263,23.5882 -4.08594,25.72656 0.64132,2.55521 5.80059,3.76089 16.29492,3.80859 3.43605,0.0156 6.249,0.2883 129.86724,0.60547 123.6181,-0.31717 126.4311,-0.58987 129.8671,-0.60547 z"
         sodipodi:nodetypes="ssssccsssscs" />
    </g>
    <path
       id="path73202"
       style="fill:#ffffff;stroke-width:0.319292"
       d="m 91.04524,84.23391 c -1.065605,-0.527469 -2.175257,-1.679551 -2.72201,-2.826119 l -0.358895,-0.752617 -3.615893,-0.07192 -3.615905,-0.0718 -0.54709,-0.636646 c -0.972346,-1.131519 -0.499931,-4.100158 0.993717,-6.244415 1.871176,-2.68623 1.902165,-2.797278 2.087466,-7.479693 0.143159,-3.617377 0.244963,-4.447203 0.687897,-5.607166 0.950322,-2.488791 2.37656,-4.160932 4.378743,-5.133665 0.748019,-0.363408 1.088148,-0.727322 1.523154,-1.629663 0.756429,-1.569072 1.473217,-2.04547 3.228687,-2.145885 1.926832,-0.110179 2.798533,0.37019 3.63601,2.003824 0.47822,0.93286 0.864532,1.351984 1.588355,1.723309 2.169204,1.112802 3.933644,3.326882 4.610324,5.785153 0.19064,0.692628 0.38482,2.719682 0.45302,4.729262 0.15278,4.501508 0.34948,5.368032 1.59462,7.024426 1.26051,1.676873 1.84861,3.001332 2.02733,4.565841 0.30766,2.69306 -0.4452,3.158767 -5.1063,3.158767 h -3.178176 l -0.371191,0.737447 c -0.516608,1.026373 -1.863151,2.395205 -2.864857,2.912332 -1.160929,0.599284 -3.173345,0.580772 -4.429006,-0.04079 z m 3.493273,-2.085401 c 0.270317,-0.151583 0.711683,-0.556407 0.98083,-0.899602 l 0.489335,-0.623998 H 93.22687 90.44504 l 0.666453,0.704297 c 0.366545,0.387386 0.870663,0.789327 1.12026,0.893254 0.663967,0.276459 1.743595,0.241837 2.30676,-0.07397 z m 10.002807,-4.821484 c -0.0782,-0.693521 -0.40206,-1.442976 -0.99388,-2.299785 -1.56375,-2.263933 -1.67173,-2.446506 -1.92303,-3.251749 -0.13633,-0.436792 -0.32533,-2.632131 -0.42003,-4.878529 -0.1507,-3.575152 -0.24536,-4.282369 -0.75925,-5.672706 -0.703438,-1.903167 -2.164013,-3.403403 -4.090977,-4.202083 -1.140233,-0.472609 -1.249349,-0.582787 -1.378776,-1.392207 -0.370033,-2.314085 -2.860404,-2.404979 -3.203514,-0.116936 -0.140818,0.939015 -0.198876,0.998485 -1.54951,1.586884 -1.473253,0.64181 -2.242632,1.242156 -3.170641,2.474043 -1.046007,1.388526 -1.329491,2.720913 -1.509818,7.096083 -0.186013,4.51319 -0.554959,6.013427 -1.838292,7.47506 -0.774193,0.881765 -1.790816,2.97862 -1.793953,3.700174 l -0.0024,0.510538 H 93.282153 104.65708 Z M 75.897706,66.560297 c -0.338379,-0.373908 -0.407781,-0.863749 -0.409869,-2.893084 -0.0037,-3.800818 0.760618,-6.465544 2.765975,-9.640808 1.287435,-2.038518 3.894175,-4.487919 4.776206,-4.487919 0.740355,0 1.373405,0.511334 1.373405,1.109363 0,0.217919 -0.912598,1.32371 -2.028008,2.457305 -3.240055,3.292924 -4.399861,6.132572 -4.381893,10.728546 0.0072,1.840656 -0.07071,2.47286 -0.342638,2.779635 -0.467082,0.526986 -1.249687,0.503309 -1.753178,-0.05298 z m 4.128446,0.12478 c -0.496479,-0.496479 -0.661396,-2.441508 -0.380786,-4.490985 0.471185,-3.441321 1.475584,-5.504505 3.862788,-7.934695 1.189794,-1.211239 1.660243,-1.5442 2.181774,-1.5442 0.365701,0 0.787433,0.122536 0.937192,0.272296 0.560969,0.560969 0.25305,1.230946 -1.296509,2.820943 -2.460757,2.524981 -3.49927,4.997806 -3.522489,8.387513 -0.01484,2.163564 -0.256921,2.814474 -1.046803,2.814474 -0.225414,0 -0.556238,-0.146406 -0.735167,-0.325346 z m 25.137628,0.01207 c -0.36276,-0.26526 -0.42087,-0.571238 -0.37713,-1.985456 0.11006,-3.557534 -1.0272,-6.456349 -3.50499,-8.934157 -1.289561,-1.289559 -1.467975,-1.570098 -1.405994,-2.210907 0.136734,-1.413977 1.484984,-1.131302 3.257844,0.683046 2.61578,2.676963 3.96074,5.974038 3.96074,9.70951 0,1.841368 -0.0641,2.207949 -0.45382,2.597725 -0.53444,0.534432 -0.8912,0.568318 -1.47665,0.140239 z m 3.91591,0.06854 c -0.33925,-0.197598 -0.39709,-0.586951 -0.39709,-2.67327 0,-4.665557 -1.32069,-7.924787 -4.48144,-11.05931 -1.88731,-1.871658 -2.23989,-2.581796 -1.5997,-3.22199 1.67427,-1.674254 6.8559,4.360086 8.00737,9.325092 0.72116,3.109639 0.70645,6.797818 -0.0301,7.534336 -0.39211,0.392105 -0.93054,0.42628 -1.49908,0.09509 z"
       inkscape:export-filename="C:\Users\tobiw\Documents\Arduino\TrashReminder_V3\shortcut.png"
       inkscape:export-xdpi="30.75"
       inkscape:export-ydpi="30.75" />
    <text
       xml:space="preserve"
       style="font-style:normal;font-weight:normal;font-size:19.9285px;line-height:1.25;font-family:sans-serif;fill:#000000;fill-opacity:1;stroke:none;stroke-width:0.498213"
       x="30.911161"
       y="109.90462"
       id="text85676"
       inkscape:export-filename="C:\Users\tobiw\Documents\Arduino\TrashReminder_V3\shortcut.png"
       inkscape:export-xdpi="30.75"
       inkscape:export-ydpi="30.75"><tspan
         sodipodi:role="line"
         id="tspan85674"
         x="30.911161"
         y="109.90462"
         style="font-style:normal;font-variant:normal;font-weight:normal;font-stretch:normal;font-family:'Script MT Bold';-inkscape-font-specification:'Script MT Bold, ';stroke-width:0.498213">TrashReminder</tspan></text>
  </g>
</svg>
